<?xml version="1.0" encoding="UTF-8"?>
<svg id="Camada_1" data-name="Camada 1" xmlns="http://www.w3.org/2000/svg" viewBox="0 0 155.32 39.01">
  <defs>
    <style>
      .cls-1 {
        fill: #fff;
      }

      .cls-1, .cls-2 {
        stroke-width: 0px;
      }

      .cls-2 {
        fill: #f15a24;
      }
    </style>
  </defs>
  <path class="cls-2" d="m3.55,10.96h0s-.87.58-.87.58v15.93l14.06,9.37v-2.09l-12.32-8.21v-12.91l7.69,5.13v2.66l-4.56,3.04-1.57,1.05,1.57,1.05,4.56,3.04,1.74,1.16v-8.41l1.15-.77,1.74-1.16V2.17L3.55,10.96Zm8.56,16.54l-3-2,3-2v3.99Zm2.89-8.01l-1.15.77v-2.43h0s-1.74-1.16-1.74-1.16h0s-6.99-4.66-6.99-4.66l9.88-6.59v14.07Z"/>
  <path class="cls-2" d="m18.55,2.17v2.09s0,14.07,0,14.07v2.09s1.74,1.16,1.74,1.16l1.15.77v6.31s0,2.09,0,2.09l1.74-1.16,4.56-3.04,1.57-1.05-1.57-1.05-4.56-3.04v-2.66s7.69-5.13,7.69-5.13v12.91s-12.32,8.21-12.32,8.21v2.09s14.06-9.37,14.06-9.37v-15s0-.93,0-.93l-.87-.58h0S18.55,2.17,18.55,2.17Zm4.63,21.34l3,2-3,2v-3.99Zm-2.89-18.09l9.88,6.59-6.99,4.66h0s-1.74,1.16-1.74,1.16h0v2.09s0,.34,0,.34l-1.15-.77V5.42Z"/>
  <g>
    <path class="cls-1" d="m52.95,7.3s.04.02.04.04v2.13s-.01.04-.04.04h-7.51c-1.1,0-2.02.53-2.79,1.58-.34.58-.51,1.15-.51,1.71v.22c0,1,.45,1.87,1.35,2.61.62.45,1.27.68,1.93.68h7.53s.04.02.04.04v2.13s-.01.04-.04.04h-7.59c-1.28,0-2.49-.5-3.63-1.49-.62-.63-1.03-1.17-1.23-1.64-.38-.81-.56-1.58-.56-2.32v-.33c0-1.41.57-2.71,1.71-3.88,1.15-1.04,2.4-1.57,3.73-1.57h7.57Z"/>
    <path class="cls-1" d="m80.52,8.42c-.69-.74-1.43-1.11-2.23-1.11h-10.13s-.03.01-.04.04v11.14s.01.04.04.04h2.13s.04-.01.04-.04v-3.7h7.65c.79,0,1.46-.21,2.01-.63.79-.69,1.19-1.44,1.19-2.25v-1.78c0-.53-.22-1.11-.66-1.72Zm-1.62,3.69c-.16.31-.46.47-.9.47h-7.67v-3.07h7.87c.05,0,.1,0,.16.02.43.16.64.43.64.82,0,.92-.03,1.62-.09,1.76Z"/>
    <path class="cls-1" d="m84.26,7.3s.04.01.04.04v11.14s-.01.04-.04.04h-2.11s-.04-.01-.04-.04V7.34s.02-.04.04-.04h2.11Z"/>
    <path class="cls-1" d="m98.24,7.3s.04.02.04.04v2.13s-.01.04-.04.04h-5.38v8.98s-.01.04-.04.04h-2.13s-.04-.01-.04-.04v-8.98h-5.38s-.04-.01-.04-.04v-2.13s.02-.04.04-.04h12.98Z"/>
    <path class="cls-1" d="m113.42,13.02c0,1,.45,1.87,1.35,2.61.62.45,1.27.68,1.93.68h7.23s.04.02.04.04v2.13s-.01.04-.04.04h-7.33c-1.18,0-2.34-.46-3.49-1.39-.58-.57-.98-1.06-1.19-1.46-.47-.91-.7-1.77-.7-2.6v-5.74s.02-.04.04-.04h2.17v5.72Z"/>
    <path class="cls-1" d="m104.89,7.3h-2.47l-5.54,11.21.04.02h2.4l1.22-2.21h6.26l1.17,2.21h2.43l.04-.02c-3.69-7.47-5.54-11.2-5.56-11.21Zm-1.24,2.49l2.2,4.32h-4.31l2.11-4.32Z"/>
    <path class="cls-1" d="m61.78,7.3h-2.47l-5.54,11.21.04.02h2.4l1.22-2.21h6.26l1.17,2.21h2.43l.04-.02c-3.69-7.47-5.54-11.2-5.56-11.21Zm-1.24,2.49l2.2,4.32h-4.31l2.11-4.32Z"/>
  </g>
  <g>
    <path class="cls-1" d="m53,20.43h-7.58c-1.34,0-2.58.52-3.74,1.57-1.14,1.18-1.72,2.47-1.72,3.89v.33c0,.74.19,1.52.56,2.33.2.47.61,1.01,1.23,1.64,1.14.99,2.36,1.49,3.64,1.49h7.6s.04-.01.04-.04v-2.13s-.01-.03-.04-.04h-7.54c-.67,0-1.31-.23-1.94-.68-.9-.74-1.35-1.61-1.35-2.62v-.22c0-.56.17-1.14.51-1.72.76-1.06,1.69-1.58,2.79-1.58h7.52s.04-.01.04-.04v-2.13s-.01-.03-.04-.04Z"/>
    <path class="cls-1" d="m66.33,21.73c-1.1-.86-2.24-1.29-3.42-1.29h-3.79c-1.34,0-2.58.52-3.74,1.57-1.14,1.18-1.72,2.47-1.72,3.89v.33c0,.83.24,1.69.71,2.6.21.4.61.89,1.19,1.47,1.15.92,2.31,1.39,3.5,1.39h3.86c1.41,0,2.72-.59,3.93-1.76,1-1.18,1.5-2.38,1.5-3.6v-.53c0-.9-.29-1.82-.88-2.75-.13-.3-.51-.73-1.14-1.31Zm-.8,6.29c-.75.96-1.65,1.44-2.68,1.44h-3.65c-.7,0-1.36-.23-1.98-.68-.9-.74-1.35-1.61-1.35-2.62v-.22c0-.56.17-1.14.51-1.72.76-1.06,1.69-1.58,2.79-1.58h3.64c.49,0,.99.12,1.5.37,1.23.75,1.84,1.76,1.84,3.05,0,.68-.21,1.34-.63,1.96Z"/>
    <path class="cls-1" d="m82.09,20.43h-2.11s-.03.01-.04.04v8.15c-.26-.23-3.14-2.96-8.66-8.19h-2.19s-.03.01-.04.04v11.16s.01.04.04.04h2.13s.04-.01.04-.04v-8.17l8.68,8.21h2.15s.04-.01.04-.04v-11.16s-.01-.03-.04-.04Z"/>
    <path class="cls-1" d="m95.95,20.43h-7.58c-1.34,0-2.58.52-3.74,1.57-1.14,1.18-1.72,2.47-1.72,3.89v.33c0,.74.19,1.52.56,2.33.2.47.61,1.01,1.23,1.64,1.14.99,2.36,1.49,3.64,1.49h7.6s.04-.01.04-.04v-2.13s-.01-.03-.04-.04h-7.54c-.67,0-1.31-.23-1.94-.68-.9-.74-1.35-1.61-1.35-2.62v-.22c0-.56.17-1.14.51-1.72.76-1.06,1.69-1.58,2.79-1.58h7.52s.04-.01.04-.04v-2.13s-.01-.03-.04-.04Z"/>
    <path class="cls-1" d="m107.11,20.43h-10.14s-.03.01-.04.04v11.16s.01.04.04.04h2.13s.04-.01.04-.04v-3.87h4.82l3.21,3.93,2.77.02-3.14-3.94c.79,0,1.46-.21,2.01-.63.79-.69,1.19-1.44,1.19-2.25v-1.61c0-.53-.22-1.11-.66-1.72-.69-.74-1.43-1.11-2.23-1.11Zm.61,4.65c-.16.31-.46.47-.9.47h-7.68v-2.91h7.88c.05,0,.1,0,.16.02.43.16.64.43.64.82,0,.92-.03,1.45-.09,1.6Z"/>
    <path class="cls-1" d="m123.9,20.43h-7.58c-1.34,0-2.58.52-3.74,1.57-1.14,1.18-1.72,2.47-1.72,3.89v.33c0,.74.19,1.52.56,2.33.2.47.61,1.01,1.23,1.64,1.14.99,2.36,1.49,3.64,1.49h7.6s.04-.01.04-.04v-2.13s-.01-.03-.04-.04h-7.54c-.67,0-1.31-.23-1.94-.68-.61-.5-1.01-1.06-1.21-1.69h10.72v-2.16h-10.69c.08-.24.19-.47.33-.71.76-1.06,1.69-1.58,2.79-1.58h7.52s.04-.01.04-.04v-2.13s-.01-.03-.04-.04Z"/>
    <path class="cls-1" d="m137.91,20.43h-13s-.03.01-.04.04v2.13s.01.04.04.04h5.39v8.99s.01.04.04.04h2.13s.04-.01.04-.04v-8.99h5.39s.04-.01.04-.04v-2.13s-.01-.03-.04-.04Z"/>
    <path class="cls-1" d="m151.76,23.04c-.13-.3-.51-.73-1.14-1.31-1.1-.86-2.24-1.29-3.42-1.29h-3.79c-1.34,0-2.58.52-3.74,1.57-1.14,1.18-1.72,2.47-1.72,3.89v.33c0,.83.24,1.69.71,2.6.21.4.61.89,1.19,1.47,1.15.92,2.31,1.39,3.5,1.39h3.86c1.41,0,2.72-.59,3.93-1.76,1-1.18,1.5-2.38,1.5-3.6v-.53c0-.9-.29-1.82-.88-2.75Zm-1.94,4.99c-.75.96-1.65,1.44-2.68,1.44h-3.65c-.7,0-1.36-.23-1.98-.68-.9-.74-1.35-1.61-1.35-2.62v-.22c0-.56.17-1.14.51-1.72.76-1.06,1.69-1.58,2.79-1.58h3.64c.49,0,.99.12,1.5.37,1.23.75,1.84,1.76,1.84,3.05,0,.68-.21,1.34-.63,1.96Z"/>
  </g>
</svg>