<svg width="111" height="37" viewBox="0 0 111 37" fill="none" xmlns="http://www.w3.org/2000/svg">
<path d="M31.9368 19.2773V10.4163C31.9368 10.2398 31.8308 10.0633 31.6896 9.92204C31.5484 9.78083 31.3719 9.71022 31.1601 9.71022H27.6298C27.418 9.71022 27.2415 9.78083 27.1003 9.92204C26.9238 10.0633 26.8532 10.2398 26.8532 10.4163V20.1245C26.8532 21.2189 26.9944 22.2074 27.3121 23.09C27.6298 24.0078 28.0888 24.7492 28.6889 25.3846C29.289 26.0201 30.0304 26.5143 30.913 26.8673C31.7602 27.2204 32.7487 27.3969 33.8431 27.3969C35.1846 27.3969 36.2437 27.1851 37.0203 26.7614C37.797 26.3378 38.4325 25.773 38.9973 25.1022V26.1966C38.9973 26.4084 39.0679 26.5849 39.2091 26.7261C39.3503 26.8673 39.5268 26.9026 39.7387 26.9026H43.3042C43.516 26.9026 43.7279 26.832 43.8691 26.6908C44.0103 26.5496 44.0809 26.3731 44.0809 26.1613V10.4869C44.0809 10.2751 44.0103 10.0986 43.8691 9.95734C43.7279 9.81613 43.516 9.71022 43.3042 9.71022H39.7387C39.5268 9.71022 39.3503 9.78083 39.2091 9.92204C39.0679 10.0633 38.9973 10.2398 38.9973 10.4163V19.3479C38.9973 20.4776 38.6796 21.3601 38.0794 22.0662C37.444 22.7722 36.5614 23.09 35.4317 23.09C34.2314 23.09 33.3489 22.7369 32.784 22.0309C32.2192 21.3248 31.9368 20.4069 31.9368 19.2773ZM52.2124 26.1613V19.8068H53.5539L57.8255 26.2672C58.0726 26.6908 58.4257 26.9026 58.8846 26.9026H62.8738C63.2621 26.9026 63.5092 26.7967 63.6505 26.5143C63.7564 26.2319 63.7211 25.9495 63.5445 25.6318L57.8255 17.3356L62.7326 10.9458C62.9444 10.6634 62.9797 10.381 62.9091 10.0986C62.8032 9.85144 62.5561 9.71022 62.203 9.71022H58.3903C58.1785 9.71022 58.002 9.78083 57.8255 9.85144C57.649 9.92204 57.5078 10.0986 57.3666 10.3104L53.448 15.7117H52.2124V2.9321C52.2124 2.72028 52.1418 2.54377 52.0006 2.40256C51.8593 2.26135 51.6828 2.19074 51.471 2.19074H47.9054C47.6936 2.19074 47.4818 2.26135 47.3406 2.40256C47.1994 2.54377 47.1288 2.72028 47.1288 2.9321V26.1613C47.1288 26.3731 47.1994 26.5496 47.3406 26.6908C47.4818 26.832 47.6936 26.9026 47.9054 26.9026H51.471C51.6828 26.9026 51.8593 26.832 52.0006 26.6908C52.1418 26.5496 52.2124 26.3731 52.2124 26.1613ZM67.6675 7.87448C68.4795 7.87448 69.1855 7.59206 69.7857 6.95661C70.3858 6.35647 70.7036 5.65041 70.7036 4.80315C70.7036 3.95588 70.3858 3.24983 69.7857 2.61438C69.1855 2.01423 68.4795 1.69651 67.6675 1.69651C66.8203 1.69651 66.0789 2.01423 65.4787 2.61438C64.8786 3.24983 64.5962 3.95588 64.5962 4.80315C64.5962 5.65041 64.8786 6.35647 65.4787 6.95661C66.0789 7.59206 66.8203 7.87448 67.6675 7.87448ZM65.8671 26.9026H69.4327C69.6445 26.9026 69.821 26.832 69.9622 26.6908C70.1034 26.5496 70.174 26.3378 70.174 26.126V10.4869C70.174 10.2751 70.1034 10.0986 69.9622 9.95734C69.821 9.81613 69.6445 9.71022 69.4327 9.71022H65.8671C65.6553 9.71022 65.4434 9.81613 65.3022 9.95734C65.161 10.0986 65.0904 10.2751 65.0904 10.4869V26.126C65.0904 26.3378 65.161 26.5496 65.3022 26.6908C65.4434 26.832 65.6553 26.9026 65.8671 26.9026ZM77.2511 35.0929C79.0162 35.0929 80.4989 34.6339 81.6286 33.6808C82.7583 32.7276 83.6056 31.4214 84.1351 29.7975L89.9954 10.9105C90.1013 10.5575 90.1013 10.2751 89.9954 10.0633C89.8895 9.85144 89.6777 9.71022 89.3246 9.71022H85.3354C85.053 9.71022 84.8059 9.81613 84.6647 9.95734C84.5235 10.1339 84.4176 10.3104 84.3822 10.5222L81.205 22.2427L77.7806 10.5222C77.71 10.3104 77.6394 10.1339 77.4982 9.95734C77.357 9.81613 77.1805 9.71022 76.9687 9.71022H72.8383C72.3793 9.71022 72.0969 9.85144 72.0263 10.0986C71.9204 10.3457 71.9204 10.6281 72.0263 10.9105L77.0746 26.1613C77.1452 26.3731 77.2511 26.5496 77.3923 26.6908C77.5335 26.832 77.7453 26.9026 78.0278 26.9026H79.8282L79.0515 29.0914C78.8397 29.621 78.5573 30.0093 78.2043 30.2917C77.8159 30.5741 77.3923 30.7153 76.8981 30.7153C76.4744 30.7153 76.0861 30.6447 75.7331 30.4682C75.3801 30.327 75.0623 30.1152 74.7799 29.9034C74.5328 29.7622 74.2504 29.6563 73.9679 29.6563C73.6855 29.6563 73.4384 29.7975 73.2266 30.1152L71.9557 31.9509C71.6027 32.5158 71.6027 32.9394 72.0263 33.2924C72.6264 33.8573 73.3678 34.3162 74.2857 34.6339C75.2035 34.9517 76.192 35.0929 77.2511 35.0929ZM95.6692 18.3241C95.6692 17.7239 95.7751 17.1591 95.9869 16.6296C96.1987 16.1 96.4812 15.6411 96.8695 15.2528C97.2225 14.8644 97.6814 14.5467 98.211 14.2996C98.7052 14.0878 99.2701 13.9466 99.8702 13.9466C100.47 13.9466 101.035 14.0878 101.529 14.2996C102.024 14.5467 102.483 14.8644 102.871 15.2528C103.224 15.6411 103.542 16.1 103.754 16.6296C103.965 17.1591 104.071 17.7239 104.071 18.3241C104.071 18.9242 103.965 19.4891 103.754 20.0186C103.542 20.5835 103.224 21.0424 102.871 21.4307C102.483 21.8191 102.024 22.1368 101.529 22.3486C101.035 22.5957 100.47 22.7016 99.8702 22.7016C99.2701 22.7016 98.7052 22.5957 98.211 22.3486C97.6814 22.1368 97.2225 21.8191 96.8695 21.4307C96.4812 21.0424 96.1987 20.5835 95.9869 20.0186C95.7751 19.4891 95.6692 18.9242 95.6692 18.3241ZM90.515 18.2888C90.515 19.7009 90.7268 20.9365 91.221 22.0662C91.7153 23.1959 92.3507 24.149 93.1274 24.9257C93.9041 25.7377 94.8219 26.3378 95.881 26.7614C96.9048 27.1851 97.9639 27.3969 99.0936 27.3969C100.223 27.3969 101.247 27.1851 102.13 26.7614C103.012 26.3378 103.648 25.773 104.071 25.0669V26.1613C104.071 26.3731 104.142 26.5496 104.283 26.6908C104.424 26.832 104.601 26.9026 104.813 26.9026H108.378C108.59 26.9026 108.767 26.832 108.908 26.6908C109.049 26.5496 109.12 26.3731 109.12 26.1613V10.4869C109.12 10.2751 109.049 10.0986 108.908 9.95734C108.767 9.81613 108.59 9.71022 108.378 9.71022H104.813C104.601 9.71022 104.424 9.81613 104.283 9.95734C104.142 10.0986 104.071 10.2751 104.071 10.4869V11.546C103.648 10.8752 103.012 10.3104 102.165 9.88674C101.282 9.46311 100.259 9.21598 99.1289 9.21598C97.9992 9.21598 96.9401 9.4278 95.9163 9.85144C94.8572 10.2751 93.9394 10.9105 93.1627 11.6872C92.3507 12.4638 91.7153 13.417 91.221 14.5467C90.7268 15.6764 90.515 16.912 90.515 18.2888Z" fill="white"/>
<path fill-rule="evenodd" clip-rule="evenodd" d="M0.176832 20.9124C0.973709 20.5535 6.91279 16.2886 8.19802 15.5112C8.6242 15.6862 9.73731 16.5057 10.2287 16.8448C10.9244 17.3246 11.5304 17.7971 12.1883 18.2289L16.1724 20.9186L16.1904 16.2246L10.2074 12.1054C9.60013 11.6854 8.76677 11.04 8.13687 10.7426C7.57043 11.028 7.0867 11.4411 6.57523 11.7894C6.16086 12.0715 5.39404 12.6528 4.92111 12.8424L4.9807 9.41418C8.4436 9.41007 12.1583 9.21483 14.8731 10.7901C20.0235 13.779 20.107 21.8709 14.9455 24.9081C12.3057 26.4615 8.43204 26.0399 4.99406 26.0225L4.97711 21.1354C4.04022 21.5122 1.2121 23.6087 0.177602 24.0596L0.177345 30.2558C3.16936 30.2468 6.15393 30.2545 9.13721 30.2548C12.1947 30.255 14.2871 30.105 16.7926 28.8745C26.0841 24.3106 25.9279 11.0038 16.9498 6.58632C14.4474 5.35504 12.3586 5.18086 9.25487 5.18138C6.22894 5.18164 3.20301 5.18369 0.177088 5.18112L0.176575 20.9132L0.176832 20.9124Z" fill="white"/>
<path fill-rule="evenodd" clip-rule="evenodd" d="M0.301681 20.8487C1.45641 20.2078 6.96571 16.2573 8.19801 15.5118C8.6242 15.6868 9.73731 16.5062 10.2287 16.8453C10.9244 17.3252 11.5304 17.7976 12.1883 18.2295L16.1724 20.9191L16.1904 16.2252L10.2074 12.1059L8.16719 10.7038C5.49449 12.3554 2.84979 14.0732 0.176575 15.725V20.8462L0.301681 20.849V20.8487Z" fill="#EC712C"/>
</svg>
